# xmcd CD database file
#
# Track frame offsets:
#	150
#	13468
#	33097
#	50814
#	80200
#	127540
#	152959
#	176395
#	192949
#
# Disc length: 2901 seconds
#
# Revision: 0
# Processed by: cddbd v1.4PL0 Copyright (c) Steve Scherf et al.
# Submitted via: CDex 1.50beta9
#
DISCID=710b5309
DTITLE=Papalagi - Park'n'Ride
DYEAR=2002
DGENRE=New Age
TTITLE0=Five4Tune
TTITLE1=Free One
TTITLE2=Super Booster
TTITLE3=Tatooine
TTITLE4=57
TTITLE5=Two Hours
TTITLE6=Cowgirl
TTITLE7=Alte Diva (Arbeitstitel)
TTITLE8=Five4Tune (live)
EXTD=YEAR: 2002
EXTT0=
EXTT1=
EXTT2=
EXTT3=
EXTT4=
EXTT5=
EXTT6=
EXTT7=
EXTT8=
PLAYORDER=
